<?xml version="1.0" encoding="utf-8"?>
<!-- Generator: Adobe Illustrator 16.0.0, SVG Export Plug-In . SVG Version: 6.00 Build 0)  -->
<!DOCTYPE svg PUBLIC "-//W3C//DTD SVG 1.1//EN" "http://www.w3.org/Graphics/SVG/1.1/DTD/svg11.dtd" [
	<!ENTITY ns_extend "http://ns.adobe.com/Extensibility/1.0/">
	<!ENTITY ns_ai "http://ns.adobe.com/AdobeIllustrator/10.0/">
	<!ENTITY ns_graphs "http://ns.adobe.com/Graphs/1.0/">
	<!ENTITY ns_vars "http://ns.adobe.com/Variables/1.0/">
	<!ENTITY ns_imrep "http://ns.adobe.com/ImageReplacement/1.0/">
	<!ENTITY ns_sfw "http://ns.adobe.com/SaveForWeb/1.0/">
	<!ENTITY ns_custom "http://ns.adobe.com/GenericCustomNamespace/1.0/">
	<!ENTITY ns_adobe_xpath "http://ns.adobe.com/XPath/1.0/">
]>
<svg version="1.1" xmlns:x="&ns_extend;" xmlns:i="&ns_ai;" xmlns:graph="&ns_graphs;"
	 xmlns="http://www.w3.org/2000/svg" xmlns:xlink="http://www.w3.org/1999/xlink" x="0px" y="0px" width="149px" height="147px"
	 viewBox="0 0 149 147" enable-background="new 0 0 149 147" xml:space="preserve">
<metadata>
	<sfw  xmlns="&ns_sfw;">
		<slices></slices>
		<sliceSourceBounds  height="229.06" width="569.979" y="-147" x="-102.479" bottomLeftOrigin="true"></sliceSourceBounds>
	</sfw>
</metadata>
<g id="Layer_1">
</g>
<g id="Layer_2">
	<g>
		<defs>
			<rect id="SVGID_1_" x="1" y="1" width="103" height="146"/>
		</defs>
		<clipPath id="SVGID_2_">
			<use xlink:href="#SVGID_1_"  overflow="visible"/>
		</clipPath>
		<linearGradient id="SVGID_3_" gradientUnits="userSpaceOnUse" x1="-102.479" y1="74" x2="103.5918" y2="74">
			<stop  offset="0" style="stop-color:#222222"/>
			<stop  offset="1" style="stop-color:#555555"/>
		</linearGradient>
		<path clip-path="url(#SVGID_2_)" fill="url(#SVGID_3_)" d="M42.592,74c0,40.061-32.476,72.535-72.536,72.535
			S-102.479,114.061-102.479,74c0-40.06,32.475-72.535,72.535-72.535S42.592,33.94,42.592,74z M31.056,1.465
			C-9.004,1.465-41.479,33.94-41.479,74c0,40.061,32.475,72.535,72.535,72.535S103.592,114.061,103.592,74
			C103.592,33.94,71.116,1.465,31.056,1.465z"/>
	</g>
	<g>
		<defs>
			<rect id="SVGID_4_" x="104" y="1" width="45" height="63"/>
		</defs>
		<clipPath id="SVGID_5_">
			<use xlink:href="#SVGID_4_"  overflow="visible"/>
		</clipPath>
		<linearGradient id="SVGID_6_" gradientUnits="userSpaceOnUse" x1="59.125" y1="32.311" x2="148.4902" y2="32.311">
			<stop  offset="0" style="stop-color:#222222"/>
			<stop  offset="1" style="stop-color:#555555"/>
		</linearGradient>
		<path clip-path="url(#SVGID_5_)" fill="url(#SVGID_6_)" d="M122.036,32.311c0,17.373-14.083,31.456-31.455,31.456
			S59.125,49.684,59.125,32.311c0-17.372,14.083-31.456,31.456-31.456S122.036,14.939,122.036,32.311z M117.034,0.855
			c-17.373,0-31.456,14.083-31.456,31.456c0,17.373,14.083,31.456,31.456,31.456c17.372,0,31.456-14.083,31.456-31.456
			C148.49,14.939,134.406,0.855,117.034,0.855z"/>
	</g>
</g>
</svg>
